# xmcd
#
# Track frame offsets:
#	150
#	18300
#	36382
#	50875
#	67722
#	86104
#	104684
#	122302
#	141452
#	156457
#	171590
#	189922
#	210890
#	229387
#	246301
#	278525
#
# Disc length: 3722 seconds
#
# Revision: 2
# Processed by: cddbd v1.5.2PL0 Copyright (c) Steve Scherf et al.
# Submitted via: audiograbber 1.83.01
#
DISCID=e80e8810
DTITLE=Soundchoice - SC8996
DYEAR=2007
DGENRE=Karaoke
TTITLE0=Urban, Keith - Stupid Boy (Radio Version)
TTITLE1=Ingram, Jack - Lips Of An Angel
TTITLE2=Turner, Josh - Me And God
TTITLE3=Wreckers, The - My, Oh My
TTITLE4=Brooks and Dunn - Hillbilly Deluxe
TTITLE5=Atkins, Rodney - Watching You
TTITLE6=Pickler, Kellie - Red High Heels
TTITLE7=McGraw, Tim - Last Dollar (Fly Away) (Radio Version)
TTITLE8=Lambert, Miranda  - Crazy Ex-Girlfriend
TTITLE9=Keith, Toby and Linsey Haun - Broken Bridges
TTITLE10=Wilson, Gretchen and John Rich - Come To Bed
TTITLE11=Carroll, Jason Michael - Alyssa Lies
TTITLE12=Swift, Taylor - Tim McGraw
TTITLE13=Allan, Gary - Feelin' Like That, A
TTITLE14=Jackson, Alan - Woman's Love, A (Radio Version)
TTITLE15=Data Track - Data Track
EXTD=
EXTT0=
EXTT1=
EXTT2=
EXTT3=
EXTT4=
EXTT5=
EXTT6=
EXTT7=
EXTT8=
EXTT9=
EXTT10=
EXTT11=
EXTT12=
EXTT13=
EXTT14=
EXTT15=
PLAYORDER=
